<svg width="550" height="250" viewBox="0 0 550 250" fill="none" xmlns="http://www.w3.org/2000/svg">
<rect width="550" height="250" rx="21" fill="#121212"/>
<path d="M208.297 155.364L201.839 165.812M171.749 99.4524L174.576 94.9392L175.045 87.8905L174.623 81.4357L173.341 75.7182L171.249 70.851L168.42 66.9214L164.938 63.9892L160.895 62.0888L156.395 61.2273L151.54 61.3943L146.433 62.5599L141.183 64.6728L135.888 67.6729L130.647 71.4898L125.553 76.0401L120.694 81.232L116.151 86.97L112.001 93.1478L108.315 99.663L105.159 106.4L102.587 113.246L100.653 120.081L94.9678 121.156L91.9107 123.776L90.7359 129.827L90.2308 132.429L89.7284 137.853L89.4553 140.788L89.1592 146.084L89.2235 149.33L89.3324 154.74L90.5589 162.76L92.8566 169.965L95.0292 174.816L95.8858 176.729L99.4631 183.362L104.142 188.79L109.871 192.843L116.57 195.366L124.128 196.227L132.396 195.337L141.192 192.643L150.309 188.149L159.509 181.917L168.539 174.069L177.146 164.794L185.076 154.332L192.097 142.975L198.01 131.048L202.652 118.888L205.916 106.846L207.734 95.2468L208.1 84.3929M117.7 73.9211L111.884 81.2937L111.546 81.7989L106.57 89.2199L101.842 97.5652L97.7745 106.201M95.9486 155.465L98.7172 160.355L102.315 164.273L106.697 167.1L111.79 168.737L117.505 169.099L123.726 168.139L130.315 165.838L137.12 162.214L143.971 157.33L150.691 151.287L157.101 144.224L163.024 136.318L168.302 127.775L172.793 118.827L176.38 109.713L178.979 100.676M132.199 153.715L130.023 152.47L127.72 152.016L122.246 150.941L121.414 151.113L114.312 152.595L107.334 157.249L102.312 164.27L99.9647 172.666M220.811 121.938L218.909 117.052L213.72 111.767L205.912 106.845L196.599 103.019L187.159 100.86L178.978 100.668M175.295 50.7085L169.016 56.2727L164.933 63.9931L163.619 72.7637L165.231 81.3445L169.503 88.5519M222.363 111.126L222.557 100.958L220.814 94.7244L219.621 84.8886L217.095 76.2431L213.349 68.9494L208.315 62.6897L201.029 58.6716L192.477 57.5071L183.868 59.3921M183.868 59.3921L176.436 64.0672L171.237 70.8561L169.283 77.7017L168.976 78.7712L169.789 85.6483L169.915 86.7M183.868 59.3921L186.786 65.6728L188.642 73.1258L189.352 81.6047L188.86 90.9247L187.149 100.868L184.233 111.178L180.171 121.586L175.061 131.806L169.035 141.555L162.261 150.566L154.927 158.596L147.242 165.44L139.416 170.937L131.654 174.975L124.155 177.49M183.868 59.3921L179.995 54.382L175.288 50.7096M128.591 153.593L121.473 155.672L115.584 160.95L111.781 168.735L110.629 177.944M110.629 177.944L112.306 187.268M110.629 177.944L104.885 175.977L99.9621 172.668M110.629 177.944L117.095 178.471L124.155 177.49M130.796 131.156L124.451 126.718L116.535 123.067L108.191 120.744L100.638 120.083M222.547 100.957L221.413 91.6777L219.616 84.8877L214.613 78.8871M214.613 78.8871L207.039 74.5471L197.945 72.5214L188.643 73.1209L180.479 76.2527L174.611 81.4359L171.812 87.9026M214.613 78.8871L215.775 88.9188L215.489 99.9697L213.717 111.769L210.465 124.011L205.795 136.359L199.821 148.465L192.7 159.978L184.641 170.568L175.883 179.943L166.677 187.854L157.287 194.114M214.613 78.8871L212.086 70.089L208.31 62.6888L203.429 56.8019L197.601 52.4974L194.655 50.895L190.662 48.7236L184.237 46.1108L177.204 45.0623L170.268 44.615L163.235 45.0694L158.714 46.204L155.915 46.907L151.252 48.8664L148.454 50.0418L144.044 52.3655L137.201 56.3388L130.455 61.3313L129.385 65.3948M153.426 53.5349L151.528 61.3945L152.128 70.3155L155.147 79.021L160.141 86.272L163.545 86.3163L166.687 87.0746L169.496 88.5481L171.415 90.2762L171.453 90.4087M172.14 93.5822L172.121 93.4901L172.061 92.9205L172.097 92.5583L172.044 91.7046L172.015 91.1899L171.995 90.8665L171.813 87.8977L170.742 82.9749L168.977 78.7615L166.578 75.3351L163.613 72.7551L160.161 71.0511L156.305 70.2384L152.133 70.3116L147.736 71.2478L143.204 73.0125L138.625 75.5509L134.089 78.803L129.676 82.7006L125.466 87.1674L121.533 92.1138L117.942 97.4513L114.758 103.083L112.041 108.911L109.842 114.83L108.201 120.736L107.159 126.516L106.741 132.064L106.969 137.27L107.848 142.027L109.379 146.229L111.543 149.778L114.313 152.585L117.646 154.567L121.481 155.661L125.747 155.82L131.134 154.097L132.26 153.736L132.357 153.707M208.1 84.3881L198.843 81.8177L189.36 81.5939L181.034 83.7309L175.038 87.8867L172.937 91.9301L172.509 92.7557L172.159 93.4331M135.196 153.255L131.566 158.248L130.306 165.826L131.659 174.966L135.468 184.363L141.19 192.64L147.979 198.6L154.844 201.425L160.825 200.796M152.281 107.034L148.407 111.809L144.898 116.99L141.816 122.476L139.219 128.179M134.04 150.161L130.136 144.536L123.697 140.125L115.592 137.572L106.963 137.274L99.0545 139.28L92.9949 143.286L89.6151 148.7L89.3299 154.742M130.46 61.3224L123.921 67.2244L117.695 73.9202L117.989 76.6121L120.689 81.236L125.466 87.1772L131.654 93.5832L138.35 99.5133L144.572 104.103L149.43 106.716L152.283 107.042L156.455 102.757L160.852 99.0437M184.249 46.1106L176.873 45.6034L169.893 48.4046L164.297 54.1676L160.892 62.0956L160.167 71.0646L162.206 79.7988L166.694 87.0833L170.269 89.8458L171.551 90.8378M132.748 153.647L132.689 153.609L131.411 152.744L127.689 150.222L126.713 150.01L119.766 148.505L111.539 149.79L104.171 153.934L98.7146 160.357L95.9409 168.145L96.2163 176.188L99.4603 183.369M153.433 53.5435L159.061 53.2647L164.295 54.1696L169.016 56.2776L173.105 59.5888L176.446 64.069L178.937 69.6578L180.489 76.2593L181.038 83.7415L180.541 91.9437L178.982 100.674L173.208 102.43L170.96 110.164L167.879 117.95L164.036 125.59L159.528 132.882L154.474 139.641L149.004 145.691L143.263 150.885L137.401 155.103L131.568 158.256L125.9 160.291L120.536 161.185L117.498 169.095L117.1 178.472L119.42 187.974L124.12 196.233L130.511 202.082L138.977 201.26M138.977 201.26L146.001 203.98L152.475 203.197L156.397 202.071L160.822 200.803L169.424 196.745L178.059 191.079L186.493 183.914L194.493 175.424L201.828 165.825L202.162 165.309L207.976 155.907L208.287 155.377L213.693 144.374L217.901 133.124L220.806 121.942L222.361 111.128L220.586 105.535L220.811 94.7264L215.779 88.9246L208.097 84.3997L207.046 74.5509L204.652 65.9227L201.032 58.6745L196.319 52.9199L190.667 48.7245L182.871 48.0822L176.869 45.6024L170.273 44.611L163.922 47.4583L157.538 47.8419L153.431 53.5406L147.534 54.9622L141.485 57.4624L135.399 60.9694L129.385 65.3948M138.977 201.26L132.387 195.34L127.193 187.021L124.155 177.49M138.977 201.26L147.974 198.604L157.287 194.114M129.385 65.3948L123.549 70.6455L117.986 76.6189L112.787 83.2037L108.035 90.2876L103.808 97.7498L100.178 105.469L97.2094 113.316L94.9628 121.159L93.4853 128.862L92.8192 136.287L92.9972 143.289L94.0375 149.729L95.9463 155.462L92.8568 162.536L95.9386 168.142L99.9669 172.669L100.617 181.245L106.008 184.986L112.313 187.266L116.568 195.368L122.771 201.123L130.516 202.083L137.67 204.743L146.006 203.981L154.846 201.433L163.981 197.097L173.17 191.035L182.165 183.367L190.711 174.27L198.557 163.985L205.476 152.796L211.273 141.02L215.787 128.993L218.911 117.055L220.589 105.533L215.494 99.9706L207.732 95.2488L198.399 92.0741L188.868 90.9188L180.533 91.9399L174.568 94.9452L173.201 102.427L170.567 105.829L169.264 110.297L168.651 112.399L166.035 119.006L162.776 125.48L158.955 131.66L154.672 137.39L150.032 142.527L145.156 146.948L140.17 150.552L135.319 153.192L135.212 153.234L134.731 153.294L134.373 153.453L133.23 153.976L132.88 154.105L130.344 155.029L125.895 160.29L123.714 168.134L124.155 177.49M129.385 65.3948L130.636 71.5025L134.083 78.8167L139.253 86.2874L145.389 92.8216L151.6 97.4804L156.994 99.6328L160.845 99.0448L165.387 95.9782L169.85 93.679L169.993 93.6271L171.841 92.9902L172.008 92.9622M157.287 194.114L150.302 188.15L144.038 180.028L139.419 170.935L137.11 162.212L137.399 155.1L140.172 150.55M157.287 194.114L163.974 197.093L169.424 196.74M171.911 92.5185L171.412 92.3887L166.38 91.0712L160.141 86.2768L156.55 86.9354L152.845 88.2715L149.103 90.2498L145.392 92.8196L141.785 95.9302L138.347 99.5153L135.143 103.503L132.228 107.82L129.655 112.386L127.477 117.116L125.732 121.924L124.456 126.719L123.678 131.413L123.419 135.913L123.692 140.129L124.501 143.972L130.973 148.384L134.318 153.367M203.434 56.7979L198.843 54.2911L196.317 52.9122L188.124 52.0509L179.998 54.3752L173.101 59.5781L168.413 66.9176L166.583 75.3409L167.744 83.1047L167.825 83.6536L170.007 87.4257L170.769 88.7411M130.666 153.655L129.253 153.396L125.203 152.651L117.641 154.576L111.158 159.613L106.69 167.097L104.887 175.975L106.006 184.983L109.866 192.847L115.889 198.482M155.92 46.8982L150.866 49.4978L144.046 52.3586L141.485 57.4576L141.175 64.6787L143.201 73.0194L147.291 81.2825L152.85 88.2724L159.066 93.0011L165.053 94.8483L169.854 93.6799L169.998 93.628M137.854 125.452L133.769 121.586L127.48 117.109L119.868 112.668L112.041 108.916L105.151 106.401L100.178 105.464L97.7701 106.195L94.4373 114.981L92.5251 121.613L91.9037 123.772M134.782 145.515L133.911 140.765L130.055 135.83L123.68 131.406L115.664 128.14L107.156 126.518L99.3931 126.778L93.4856 128.857L90.2286 132.426M145.166 146.945L143.266 150.878L143.969 157.327L147.254 165.44L152.696 174.061L159.511 181.92L166.687 187.856L173.173 191.033L178.066 191.073M100.651 120.078L99.3979 126.779L98.8587 133.219L99.0618 139.279L100.017 144.83L101.725 149.751L104.176 153.925L107.339 157.245L111.168 159.61L115.599 160.943L120.546 161.182L125.751 155.826L130.359 155.022M137.216 56.3269L135.412 60.9595L135.893 67.6738L138.638 75.5507L143.27 83.455L149.118 90.2379L155.328 94.9336L161.014 96.9141L165.402 95.9712M150.049 142.523L149.014 145.683L150.698 151.281L154.949 158.592L161.202 166.585L168.551 174.073L175.902 179.946L182.177 183.367L186.51 183.915M137.866 125.457L136.033 130.598L134.71 135.736L135.676 139.813M154.688 137.396L154.486 139.641L157.11 144.226L162.285 150.571L169.308 157.785L177.16 164.801L184.668 170.575L190.73 174.274L194.517 175.423M158.981 131.663L159.548 132.88L163.043 136.317L169.064 141.555L176.791 147.872L185.092 154.338L192.726 159.98L198.579 163.987L201.853 165.82M123.943 67.226L123.573 70.6403L125.569 76.0456L129.697 82.7119L135.386 89.6793L141.806 95.927L148.019 100.552L153.134 102.918L156.47 102.755M137.171 133.993L136.038 130.594L132.067 126.375L125.752 121.918L117.971 117.874L109.856 114.838L102.596 113.248L97.2266 113.311L94.4542 114.981M217.92 133.118L215.802 128.986L210.487 124.008L202.667 118.886L193.467 114.383L184.258 111.173L176.393 109.708L170.97 110.16L168.67 112.403M130.035 152.47L127.704 150.22L125.857 147.364L117.83 145.414L109.39 146.243L101.737 149.76L95.963 155.468M111.901 81.2992L112.809 83.2053L116.163 86.9795L121.549 92.1291L128.207 97.9218L135.164 103.505L141.398 108.062L146.021 110.956L148.43 111.823M141.84 122.491L140.182 120.41L135.95 116.886L129.684 112.386L122.266 107.554L114.781 103.098L108.334 99.6715L103.834 97.7523L101.861 97.5688M213.72 144.376L211.292 141.023L205.821 136.367L198.026 131.053L189.04 125.87L180.2 121.586L172.81 118.828L167.896 117.951L166.057 119.012M130.822 131.164L130.076 135.846L129.85 140.34L130.157 144.552L130.996 148.398L132.365 151.795L133.511 153.529M112.332 187.28L119.441 187.986L127.216 187.035L135.489 184.384L144.059 180.044L152.71 174.073L161.206 166.596L169.31 157.788L176.788 147.879L183.426 137.142L189.035 125.874L193.466 114.398L196.613 103.032L198.416 92.0845L198.856 81.835L197.966 72.5327L195.813 64.375L192.496 57.5156L188.141 52.0662L182.885 48.0898L175.307 50.7181L169.902 48.4113L163.936 47.4659L159.072 53.2694L156.401 61.2408L156.318 70.2557L158.832 79.0316L163.561 86.3268L169.817 91.1539L171.736 91.6397M163.254 45.073L157.552 47.8494L150.882 49.5082L147.55 54.9678L146.444 62.5743L147.754 71.266L151.302 79.7946L156.574 86.9399L162.797 91.7044L166.401 91.0777L169.824 91.1528L171.739 91.628M133.499 153.524L132.36 151.789L125.857 147.368L124.52 143.98L116.431 141.748L107.857 142.043L100.022 144.84L94.0468 149.735L90.7582 156.01L90.5679 162.771M106.577 89.2237L108.047 90.2874L112.008 93.1564L117.953 97.4657L125.046 102.604L132.245 107.821L138.493 112.349L142.906 115.546M142.906 115.546L144.914 117M142.906 115.546L146.016 110.955L149.446 106.722L153.136 102.925L157.018 99.6373L161.021 96.9276L165.07 94.8538L169.09 93.4659L170.962 93.1485L171.86 92.9986M142.906 115.546L140.174 120.411L137.868 125.459L139.235 128.189L137.171 133.998L135.681 139.814L134.8 145.529L134.54 150.87L134.552 151.032L134.715 153.126L134.755 153.303M208.309 155.379L205.493 152.802L199.842 148.471L192.111 142.983L183.426 137.137L175.085 131.81L168.316 127.778L164.05 125.593L162.795 125.489M217.112 76.2486L212.108 70.0954L204.666 65.9253L195.813 64.3701L186.807 65.6793L178.947 69.6644L173.347 75.7317L170.76 82.9931L171.309 88.6992L171.344 89.0476L171.466 90.3152M170.583 105.84L171.09 103.083L171.758 99.4688L172.163 93.6013L172.175 93.4484L172.084 92.9396L171.932 92.5299L171.741 91.6406L171.736 91.6348L171.57 90.8462L171.479 90.4258L171.413 90.2685L170.789 88.7573L169.943 86.7102L167.846 83.6698L165.252 81.3558L162.228 79.8053L158.844 79.0315L155.178 79.0341L151.309 79.7984L147.319 81.2927L143.286 83.4751L139.284 86.2957L135.393 89.6928L131.68 93.5954L128.214 97.9305L125.057 102.613L122.265 107.563L119.891 112.687L117.977 117.892L116.568 123.083L115.689 128.162L115.368 133.031L115.617 137.594L116.443 141.758L117.841 145.428L119.794 148.521L122.272 150.958L125.233 152.674L128.627 153.612L130.699 153.681L131.518 153.708L132.229 153.733L132.389 153.738L132.78 153.668L133.515 153.539L133.52 153.535L134.413 153.478L134.8 153.445L135.252 153.258L135.359 153.217M134.57 151.05L134.558 150.888L133.725 145.64L129.864 140.352L123.457 135.935L115.377 133.038L106.773 132.095L98.8885 133.247L92.8518 136.308L89.4829 140.813L89.6475 148.726L90.779 156.026L92.8895 162.557L92.8865 169.993L96.2489 176.209L100.65 181.266L104.172 188.818L110.034 194.32L115.926 198.508L122.803 201.149L130.057 203.795L137.705 204.767M169.11 93.4821L162.816 91.7177L159.101 93.02L155.351 94.9624L151.638 97.4973L148.035 100.572L144.604 104.124L141.411 108.079L138.511 112.367L135.959 116.907L133.803 121.614L132.084 126.403L130.838 131.184L134.732 135.76L133.95 140.799L133.727 145.643L134.079 150.196L134.524 152.19L134.735 153.147" stroke="#0FFF67" stroke-width="0.7" stroke-linecap="round" stroke-linejoin="round"/>
<path d="M248.632 171V81.4H282.168C289.763 81.4 296.291 82.6373 301.752 85.112C307.213 87.5013 311.395 91 314.296 95.608C317.283 100.131 318.776 105.635 318.776 112.12C318.776 118.435 317.283 123.896 314.296 128.504C311.395 133.027 307.213 136.525 301.752 139C296.291 141.389 289.763 142.584 282.168 142.584H253.88L258.104 138.232V171H248.632ZM309.816 171L286.776 138.488H297.016L320.184 171H309.816ZM258.104 139L253.88 134.52H281.912C290.872 134.52 297.656 132.557 302.264 128.632C306.957 124.707 309.304 119.203 309.304 112.12C309.304 104.952 306.957 99.4053 302.264 95.48C297.656 91.5547 290.872 89.592 281.912 89.592H253.88L258.104 85.112V139ZM318.092 171V81.4H356.748C366.732 81.4 374.455 83.4053 379.916 87.416C385.463 91.4267 388.236 97.1013 388.236 104.44C388.236 109.304 387.084 113.4 384.78 116.728C382.561 120.056 379.489 122.573 375.564 124.28C371.724 125.987 367.5 126.84 362.892 126.84L365.068 123.768C370.785 123.768 375.692 124.664 379.788 126.456C383.969 128.163 387.212 130.765 389.516 134.264C391.82 137.677 392.972 141.944 392.972 147.064C392.972 154.659 390.156 160.547 384.524 164.728C378.977 168.909 370.572 171 359.308 171H318.092ZM327.564 163.192H359.18C367.031 163.192 373.047 161.869 377.228 159.224C381.409 156.493 383.5 152.184 383.5 146.296C383.5 140.493 381.409 136.269 377.228 133.624C373.047 130.893 367.031 129.528 359.18 129.528H326.54V121.72H356.108C363.276 121.72 368.823 120.355 372.748 117.624C376.759 114.893 378.764 110.84 378.764 105.464C378.764 100.003 376.759 95.9493 372.748 93.304C368.823 90.5733 363.276 89.208 356.108 89.208H327.564V163.192ZM430.464 171.768C423.723 171.768 417.493 170.659 411.776 168.44C406.059 166.136 401.109 162.936 396.928 158.84C392.747 154.744 389.461 149.923 387.072 144.376C384.768 138.829 383.616 132.771 383.616 126.2C383.616 119.629 384.768 113.571 387.072 108.024C389.461 102.477 392.747 97.656 396.928 93.56C401.195 89.464 406.187 86.3067 411.904 84.088C417.621 81.784 423.851 80.632 430.592 80.632C437.077 80.632 443.179 81.7413 448.896 83.96C454.613 86.0933 459.435 89.336 463.36 93.688L457.344 99.704C453.675 95.9493 449.621 93.2613 445.184 91.64C440.747 89.9333 435.968 89.08 430.848 89.08C425.472 89.08 420.48 90.0187 415.872 91.896C411.264 93.688 407.253 96.2907 403.84 99.704C400.427 103.032 397.739 106.957 395.776 111.48C393.899 115.917 392.96 120.824 392.96 126.2C392.96 131.576 393.899 136.525 395.776 141.048C397.739 145.485 400.427 149.411 403.84 152.824C407.253 156.152 411.264 158.755 415.872 160.632C420.48 162.424 425.472 163.32 430.848 163.32C435.968 163.32 440.747 162.467 445.184 160.76C449.621 159.053 453.675 156.323 457.344 152.568L463.36 158.584C459.435 162.936 454.613 166.221 448.896 168.44C443.179 170.659 437.035 171.768 430.464 171.768Z" fill="white"/>
</svg>
